<svg width="62" height="54" viewBox="0 0 62 54" fill="none" xmlns="http://www.w3.org/2000/svg">
<g clip-path="url(#clip0_52_2794)">
<path d="M31.2381 32.4729C28.09 32.4729 24.8741 31.8196 22.7059 30.5229C22.486 30.391 22.4129 30.1033 22.543 29.8805C22.6731 29.6578 22.9564 29.5844 23.1769 29.7151C27.1108 32.0708 35.057 32.1453 38.6351 29.8615C38.8532 29.7231 39.1383 29.7892 39.2734 30.008C39.41 30.2274 39.3448 30.5167 39.1289 30.6547C37.2252 31.8693 34.263 32.4729 31.2381 32.4729Z" fill="white"/>
<path d="M38.997 30.588C38.9548 30.588 38.9123 30.5826 38.8705 30.5702C38.6247 30.4997 38.4816 30.2404 38.5515 29.9917C39.2006 27.6648 39.4645 26.6997 39.7726 25.5709C40.1006 24.3688 40.4797 22.9797 41.4298 19.5634C41.4993 19.3148 41.7559 19.1702 42.0006 19.2395C42.2464 19.31 42.3899 19.5686 42.3203 19.818C41.3707 23.2313 40.9922 24.6193 40.6643 25.8214C40.3557 26.952 40.0923 27.9183 39.441 30.2477C39.3845 30.4533 39.1985 30.588 38.997 30.588Z" fill="white"/>
<path d="M22.9412 30.5878C22.739 30.5878 22.5534 30.4526 22.4961 30.246C21.998 28.4493 19.8936 20.0715 19.9163 19.2382C19.9232 18.9789 20.1279 18.7726 20.3917 18.7821C20.6465 18.7897 20.848 19.0044 20.8415 19.2623C20.8436 19.9221 22.725 27.6003 23.3874 29.9918C23.4562 30.2412 23.3128 30.5001 23.067 30.5699C23.0248 30.5823 22.9823 30.5878 22.9412 30.5878Z" fill="white"/>
<path d="M41.8755 20.1587C41.7065 20.1587 41.5432 20.0645 41.4618 19.9009C41.3464 19.6697 41.4383 19.3878 41.6665 19.2713C42.0993 19.05 42.3509 18.7856 42.437 18.4617C42.628 17.7445 42.015 16.7896 41.6092 16.1578L41.58 16.1122C41.2232 15.5557 40.6476 15.1876 39.7682 14.9528C38.5515 14.6292 37.3174 14.5354 36.1649 14.4828C35.3839 14.4466 34.5837 14.4532 33.81 14.4594C33.0225 14.4656 32.2079 14.4715 31.4017 14.4346C30.9469 14.4134 30.4913 14.412 30.0372 14.4101C29.4746 14.4079 28.8918 14.4054 28.3145 14.3659C23.272 13.9387 22.2528 13.3212 21.9021 12.7179C21.8862 12.692 21.8581 12.6547 21.8228 12.6062C21.5244 12.1968 20.7311 11.1101 21.009 9.7297C21.2422 8.56735 22.1728 7.49301 23.7741 6.53662C23.7795 6.53187 26.4537 4.72207 27.3969 3.63677C27.5659 3.4425 27.8582 3.42315 28.0499 3.59441C28.242 3.76568 28.2604 4.06183 28.0917 4.25611C27.0685 5.43379 24.3799 7.25418 24.2657 7.33087C22.8784 8.16018 22.0953 9.02528 21.9162 9.91667C21.7212 10.888 22.2928 11.6721 22.5678 12.0485C22.6283 12.1322 22.6741 12.1972 22.7 12.2414C22.8302 12.4656 23.645 13.029 28.3847 13.4304C28.9257 13.4672 29.493 13.4694 30.0419 13.4716C30.5093 13.4735 30.9772 13.4753 31.4453 13.4968C32.226 13.533 33.0279 13.5268 33.8038 13.5206C34.5899 13.5144 35.403 13.5085 36.2074 13.545C37.3535 13.5976 38.701 13.698 40.0046 14.045C41.105 14.3386 41.8741 14.8472 42.3574 15.6002L42.3862 15.6451C42.8814 16.4168 43.63 17.5831 43.3319 18.7046C43.1755 19.2921 42.7556 19.7636 42.0842 20.1068C42.0164 20.1426 41.9458 20.1587 41.8755 20.1587Z" fill="white"/>
<path d="M20.378 19.7199C20.2994 19.7199 20.2194 19.6994 20.1462 19.6559C19.0611 19.0169 18.4401 17.3638 18.6358 15.6365C18.8574 13.6843 20.0248 12.1965 21.7598 11.6561C22.0041 11.5812 22.2629 11.7193 22.3382 11.9668C22.4136 12.2144 22.2759 12.4766 22.0315 12.553C20.0533 13.1683 19.6406 14.989 19.5555 15.7435C19.4027 17.0906 19.8467 18.3954 20.6112 18.846C20.8325 18.976 20.9074 19.2634 20.7788 19.4869C20.6926 19.6362 20.5376 19.7199 20.378 19.7199Z" fill="white"/>
<path d="M40.8769 15.2934C40.8538 15.2934 40.8301 15.292 40.807 15.2883C40.5543 15.2514 40.3821 15.0024 40.4181 14.7457C40.4632 14.4316 40.6571 14.2454 40.7854 14.122C40.8113 14.0968 40.8376 14.0723 40.8618 14.0449C41.335 13.5169 41.4972 13.0246 41.3714 12.4958C41.2034 11.7885 40.8711 11.2174 40.3558 10.75C39.9863 10.4147 39.5719 10.2314 39.2097 10.2449C37.7673 10.3012 36.3106 10.208 34.7597 9.95898C33.2518 9.71651 31.7211 9.32942 30.2099 8.80686C29.3313 8.5034 28.414 8.14151 27.7091 7.36187C27.0477 6.63152 26.7569 5.76715 26.8895 4.92835C27.0838 3.6999 27.8507 2.82276 29.1071 2.39185C29.2682 2.33635 29.4318 2.28741 29.5962 2.23775C29.9998 2.11615 30.3804 2.00148 30.7069 1.79698C30.9073 1.65165 31.2973 0.785088 31.2767 0.528736C31.2566 0.275671 31.4375 0.0401337 31.6869 0.0131109C31.9395 -0.013912 32.1608 0.153338 32.1947 0.405673C32.274 0.998715 31.6847 2.28778 31.1942 2.59489C30.7628 2.86512 30.3044 3.00315 29.8607 3.13681C29.7075 3.18282 29.5554 3.22883 29.4055 3.28032C28.4814 3.59729 27.9433 4.20165 27.8049 5.07697C27.7181 5.62693 27.9268 6.2134 28.3931 6.72866C28.9507 7.34507 29.7447 7.6551 30.5102 7.92022C31.9709 8.42489 33.45 8.79919 34.9064 9.03327C36.3963 9.27246 37.7922 9.36192 39.1762 9.30897C39.7726 9.28122 40.4199 9.54889 40.9749 10.0521C41.6255 10.6426 42.063 11.3908 42.2735 12.2775C42.4724 13.1119 42.2284 13.9193 41.5502 14.6767C41.5109 14.7208 41.4676 14.7625 41.4247 14.8041C41.3919 14.8359 41.3415 14.8837 41.3299 14.9034C41.2946 15.135 41.1018 15.2934 40.8769 15.2934Z" fill="white"/>
<path d="M39.2269 10.1841C39.1653 10.1841 39.1026 10.1713 39.0424 10.1447C38.8081 10.041 38.7014 9.76454 38.8034 9.52717C38.9887 9.09737 39.1199 8.73803 39.1559 8.38236C39.2082 7.87769 39.1101 7.46285 38.8564 7.11374C38.3835 6.46045 37.6815 5.99777 37.0036 5.57965C36.5469 5.29773 36.0524 5.04029 35.5756 4.79087C35.328 4.66197 35.0804 4.53269 34.8357 4.39941C34.2886 4.10179 34.0972 3.61063 33.9116 3.1359C33.6294 2.41286 33.309 1.59378 31.5672 0.905424C31.3289 0.811209 31.2115 0.539885 31.3044 0.29814C31.3974 0.0571252 31.6659 -0.0615563 31.9038 0.0319282C34.0219 0.868541 34.4555 1.97976 34.7723 2.79082C34.9384 3.21624 35.0361 3.44411 35.2736 3.57338C35.5136 3.70375 35.7562 3.83047 35.9987 3.95682C36.4907 4.21317 36.9996 4.47865 37.4847 4.77846C38.2419 5.24551 39.029 5.76735 39.6017 6.55795C39.9928 7.09585 40.1524 7.74221 40.076 8.47949C40.0245 8.98343 39.841 9.46144 39.6507 9.90294C39.5754 10.0786 39.4057 10.1841 39.2269 10.1841Z" fill="white"/>
<path d="M38.8806 16.8334C39.0442 16.8334 39.1769 16.7078 39.1769 16.5529C39.1769 16.398 39.0442 16.2725 38.8806 16.2725C38.717 16.2725 38.5844 16.398 38.5844 16.5529C38.5844 16.7078 38.717 16.8334 38.8806 16.8334Z" fill="white"/>
<path d="M39.2561 18.8674C39.464 18.8674 39.6324 18.708 39.6324 18.5113C39.6324 18.3147 39.464 18.1553 39.2561 18.1553C39.0483 18.1553 38.8799 18.3147 38.8799 18.5113C38.8799 18.708 39.0483 18.8674 39.2561 18.8674Z" fill="white"/>
<path d="M37.8588 17.716C38.0666 17.716 38.2351 17.5566 38.2351 17.36C38.2351 17.1633 38.0666 17.0039 37.8588 17.0039C37.651 17.0039 37.4825 17.1633 37.4825 17.36C37.4825 17.5566 37.651 17.716 37.8588 17.716Z" fill="white"/>
<path d="M39.8922 17.3651C40.0355 17.3651 40.1517 17.255 40.1517 17.1193C40.1517 16.9836 40.0355 16.8735 39.8922 16.8735C39.7489 16.8735 39.6327 16.9836 39.6327 17.1193C39.6327 17.255 39.7489 17.3651 39.8922 17.3651Z" fill="white"/>
<path d="M37.4829 19.1126C37.6262 19.1126 37.7424 19.0026 37.7424 18.8669C37.7424 18.7311 37.6262 18.6211 37.4829 18.6211C37.3396 18.6211 37.2234 18.7311 37.2234 18.8669C37.2234 19.0026 37.3396 19.1126 37.4829 19.1126Z" fill="white"/>
<path d="M38.8806 15.4363C39.0239 15.4363 39.1401 15.3263 39.1401 15.1906C39.1401 15.0549 39.0239 14.9448 38.8806 14.9448C38.7373 14.9448 38.6211 15.0549 38.6211 15.1906C38.6211 15.3263 38.7373 15.4363 38.8806 15.4363Z" fill="white"/>
<path d="M40.6931 16.5179C40.8364 16.5179 40.9526 16.4079 40.9526 16.2721C40.9526 16.1364 40.8364 16.0264 40.6931 16.0264C40.5498 16.0264 40.4336 16.1364 40.4336 16.2721C40.4336 16.4079 40.5498 16.5179 40.6931 16.5179Z" fill="white"/>
<path d="M40.6931 18.4007C40.8364 18.4007 40.9526 18.2907 40.9526 18.1549C40.9526 18.0192 40.8364 17.9092 40.6931 17.9092C40.5498 17.9092 40.4336 18.0192 40.4336 18.1549C40.4336 18.2907 40.5498 18.4007 40.6931 18.4007Z" fill="white"/>
<path d="M37.0595 15.9916C37.2933 15.9916 37.4829 15.8123 37.4829 15.591C37.4829 15.3698 37.2933 15.1904 37.0595 15.1904C36.8256 15.1904 36.636 15.3698 36.636 15.591C36.636 15.8123 36.8256 15.9916 37.0595 15.9916Z" fill="white"/>
<path d="M37.0595 12.9862C37.2933 12.9862 37.4829 12.8069 37.4829 12.5857C37.4829 12.3644 37.2933 12.1851 37.0595 12.1851C36.8256 12.1851 36.636 12.3644 36.636 12.5857C36.636 12.8069 36.8256 12.9862 37.0595 12.9862Z" fill="white"/>
<path d="M39.8922 12.3851C40.0558 12.3851 40.1885 12.2596 40.1885 12.1047C40.1885 11.9498 40.0558 11.8242 39.8922 11.8242C39.7286 11.8242 39.5959 11.9498 39.5959 12.1047C39.5959 12.2596 39.7286 12.3851 39.8922 12.3851Z" fill="white"/>
<path d="M40.4332 13.5306C40.5968 13.5306 40.7295 13.4051 40.7295 13.2502C40.7295 13.0953 40.5968 12.9697 40.4332 12.9697C40.2696 12.9697 40.137 13.0953 40.137 13.2502C40.137 13.4051 40.2696 13.5306 40.4332 13.5306Z" fill="white"/>
<path d="M38.235 12.9416C38.4428 12.9416 38.6113 12.7822 38.6113 12.5855C38.6113 12.3889 38.4428 12.2295 38.235 12.2295C38.0272 12.2295 37.8588 12.3889 37.8588 12.5855C37.8588 12.7822 38.0272 12.9416 38.235 12.9416Z" fill="white"/>
<path d="M39.2561 13.2503C39.3994 13.2503 39.5156 13.1403 39.5156 13.0046C39.5156 12.8688 39.3994 12.7588 39.2561 12.7588C39.1128 12.7588 38.9966 12.8688 38.9966 13.0046C38.9966 13.1403 39.1128 13.2503 39.2561 13.2503Z" fill="white"/>
<path d="M39.6324 11.0206C39.751 11.0206 39.8472 10.9295 39.8472 10.8172C39.8472 10.7048 39.751 10.6138 39.6324 10.6138C39.5138 10.6138 39.4176 10.7048 39.4176 10.8172C39.4176 10.9295 39.5138 11.0206 39.6324 11.0206Z" fill="white"/>
<path d="M38.8806 11.5892C39.0239 11.5892 39.1401 11.4791 39.1401 11.3434C39.1401 11.2077 39.0239 11.0977 38.8806 11.0977C38.7373 11.0977 38.6211 11.2077 38.6211 11.3434C38.6211 11.4791 38.7373 11.5892 38.8806 11.5892Z" fill="white"/>
<path d="M37.5459 11.7441C37.7798 11.7441 37.9694 11.5647 37.9694 11.3435C37.9694 11.1222 37.7798 10.9429 37.5459 10.9429C37.312 10.9429 37.1224 11.1222 37.1224 11.3435C37.1224 11.5647 37.312 11.7441 37.5459 11.7441Z" fill="white"/>
<path d="M24.0087 18.5313C22.4802 18.5313 21.2365 17.5851 21.2365 16.4224C21.2365 16.2932 21.3402 16.188 21.4678 16.188C21.5954 16.188 21.6992 16.2932 21.6992 16.4224C21.6992 17.327 22.7354 18.0624 24.0087 18.0624C24.1363 18.0624 24.2401 18.1676 24.2401 18.2969C24.2401 18.4265 24.1363 18.5313 24.0087 18.5313Z" fill="white"/>
<path d="M21.688 20.3013C21.5089 20.3013 21.3316 20.2717 21.1676 20.21C20.7766 20.0624 20.5358 19.7499 20.5077 19.3529C20.4983 19.224 20.5942 19.1115 20.7214 19.102C20.8469 19.0904 20.9597 19.19 20.969 19.319C20.9842 19.534 21.1056 19.686 21.3291 19.7703C21.7028 19.9113 22.2139 19.7995 22.4928 19.5165C22.5977 19.4102 22.6734 19.2722 22.7177 19.1072C22.7516 18.9819 22.8792 18.9089 23.0017 18.9421C23.125 18.9757 23.1974 19.105 23.1643 19.2295C23.0987 19.4749 22.9823 19.683 22.8201 19.8474C22.5328 20.1391 22.1061 20.3013 21.688 20.3013Z" fill="white"/>
<path d="M24.2383 20.3255C24.1482 20.3255 24.0596 20.3186 23.9742 20.3058C23.3027 20.2032 22.858 19.7504 22.8418 19.1515C22.8385 19.0226 22.9391 18.9141 23.0666 18.9105C23.1921 18.9152 23.3009 19.0091 23.3045 19.1383C23.3164 19.5758 23.6938 19.7887 24.043 19.8417C24.5551 19.9195 25.2096 19.693 25.4374 19.0116C25.4785 18.8882 25.61 18.8239 25.7308 18.8648C25.8519 18.9065 25.9167 19.0394 25.8757 19.1621C25.6007 19.9837 24.8806 20.3255 24.2383 20.3255Z" fill="white"/>
<path d="M26.8077 20.4254C26.7176 20.4254 26.6285 20.4184 26.5431 20.4057C25.8717 20.303 25.4273 19.8502 25.4111 19.2517C25.4078 19.1228 25.5084 19.0143 25.636 19.0107C25.756 19.0045 25.8702 19.1093 25.8738 19.2386C25.8857 19.676 26.2631 19.8886 26.612 19.9415C27.1223 20.0193 27.7786 19.7944 28.0064 19.1122C28.0475 18.9888 28.1797 18.9245 28.2997 18.9654C28.4208 19.007 28.4857 19.14 28.4446 19.2627C28.17 20.0843 27.4506 20.4254 26.8077 20.4254Z" fill="white"/>
<path d="M29.3798 20.4888C29.2897 20.4888 29.2007 20.4822 29.1153 20.4691C28.4438 20.3668 27.9994 19.914 27.9829 19.3151C27.9796 19.1862 28.0802 19.0778 28.2078 19.0741C28.3346 19.0694 28.442 19.1727 28.4456 19.302C28.4575 19.7395 28.8349 19.952 29.1837 20.0053C29.6966 20.0827 30.3504 19.857 30.5782 19.1753C30.6192 19.0518 30.7504 18.9887 30.8715 19.0285C30.9926 19.0701 31.0575 19.203 31.0164 19.3257C30.7414 20.1474 30.022 20.4888 29.3798 20.4888Z" fill="white"/>
<path d="M32.2123 20.5366C32.1222 20.5366 32.0332 20.53 31.9478 20.5169C31.2763 20.4146 30.832 19.9618 30.8154 19.3629C30.8121 19.234 30.9127 19.1256 31.0403 19.1219C31.1657 19.1204 31.2745 19.2205 31.2781 19.3498C31.29 19.7872 31.6674 19.9998 32.0163 20.0531C32.5284 20.1305 33.1829 19.9048 33.4107 19.2231C33.4518 19.0996 33.5837 19.0354 33.704 19.0763C33.8251 19.1179 33.89 19.2508 33.8489 19.3735C33.5747 20.1955 32.8549 20.5366 32.2123 20.5366Z" fill="white"/>
<path d="M34.8887 20.6324C34.7986 20.6324 34.7096 20.6259 34.6242 20.6127C33.9527 20.5105 33.5084 20.0576 33.4918 19.4588C33.4885 19.3298 33.5891 19.2214 33.7167 19.2177C33.8453 19.2232 33.9509 19.3163 33.9545 19.4456C33.9664 19.8831 34.3438 20.0956 34.6927 20.1489C35.2044 20.226 35.8593 20.0007 36.0871 19.3189C36.1278 19.1962 36.2597 19.1319 36.3804 19.1721C36.5015 19.2137 36.5664 19.3466 36.5253 19.4693C36.2511 20.2914 35.531 20.6324 34.8887 20.6324Z" fill="white"/>
<path d="M37.4728 20.5414C37.3827 20.5414 37.2937 20.5348 37.2083 20.5217C36.5372 20.4191 36.0932 19.9662 36.077 19.3677C36.0737 19.2385 36.1743 19.1304 36.3019 19.1267C36.304 19.1267 36.3066 19.1267 36.3084 19.1267C36.4338 19.1267 36.5361 19.2275 36.5397 19.3546C36.5513 19.7921 36.9286 20.0046 37.2775 20.0579C37.7911 20.1357 38.4449 19.9096 38.6726 19.2279C38.7134 19.1052 38.8449 19.0402 38.966 19.0811C39.0871 19.1227 39.152 19.2556 39.1109 19.3783C38.8352 20.2 38.1154 20.5414 37.4728 20.5414Z" fill="white"/>
<path d="M40.1892 20.5284C40.1179 20.5284 40.0472 20.5247 39.9788 20.5181C39.2262 20.4425 38.695 20.0098 38.6557 19.4416C38.647 19.3127 38.7426 19.2002 38.8705 19.1911C38.9945 19.1779 39.1087 19.2791 39.1177 19.4087C39.144 19.7922 39.592 20.008 40.0249 20.0514C40.5532 20.104 41.1847 19.9116 41.3332 19.3631C41.3674 19.2375 41.4957 19.1655 41.6172 19.1984C41.7408 19.2327 41.8132 19.362 41.7797 19.4862C41.5808 20.2187 40.8531 20.5284 40.1892 20.5284Z" fill="white"/>
<path d="M5.13796 42.1325C6.06668 42.1629 7.51969 42.1629 8.34356 42.1022V42.3905L7.93912 42.4664C7.26504 42.5878 7.35492 43.2405 7.35492 44.485C7.35492 44.9555 7.3699 45.4564 7.39986 45.8358L7.68446 45.8662C7.7294 45.8814 7.74438 45.9269 7.74438 45.9421V46.2456C7.53467 46.2001 7.32496 46.2001 7.19014 46.2001C6.29138 46.2001 5.88693 46.7313 4.22421 46.7313C1.70766 46.7313 0 44.5002 0 41.7834C0 39.0211 1.6028 36.8962 4.04446 36.8962C5.06306 36.8962 5.27277 37.1543 6.21648 37.1543H6.53105C6.72578 38.0042 6.93549 38.7631 7.35492 39.7041H6.87557C6.26142 38.1256 5.4675 37.2302 3.7898 37.2302C2.65137 37.2302 1.1684 38.0649 1.1684 41.3585C1.1684 44.3484 2.57647 46.3974 4.25417 46.3974C6.29138 46.3974 6.33631 45.7296 6.33631 43.6654C6.33631 42.6486 6.41121 42.512 5.48248 42.4361L5.13796 42.3905V42.1325ZM12.2682 38.839C14.0358 38.839 15.5187 40.3416 15.5187 42.6941C15.5187 45.168 14.0358 46.7161 12.3431 46.7161C10.5755 46.7161 9.09254 45.168 9.09254 42.8155C9.09254 40.3416 10.5755 38.839 12.2682 38.839ZM14.3204 42.9673C14.3204 40.7665 13.4366 39.1577 12.0435 39.1577C10.95 39.1577 10.2609 40.1139 10.2609 42.512C10.2609 44.7582 11.1447 46.3671 12.5378 46.3671C13.6163 46.3671 14.3204 45.3957 14.3204 42.9673ZM22.4093 45.3653C22.4093 45.8662 22.6789 45.9724 23.2631 45.9117V46.2153C22.2295 46.4429 21.9899 46.7313 21.5854 46.7313C21.4506 46.7313 21.3757 46.6099 21.3907 46.4581L21.5105 44.8645C21.2109 45.2743 20.3122 46.7313 18.994 46.7313C17.7357 46.7313 16.9118 46.1394 16.9118 44.0904V39.9469C16.9118 39.5068 16.792 39.355 16.4924 39.3702L16.043 39.3854V39.0515L17.6458 38.8997C17.8405 38.8845 17.9454 38.9452 17.9454 39.1425V44.1967C17.9454 45.4564 18.3049 46.2153 19.2037 46.2153C20.447 46.2153 21.1959 44.8341 21.3607 44.5457V39.9469C21.3607 39.5068 21.2708 39.355 20.9712 39.3702L20.4919 39.3854V39.0515L22.0947 38.8997C22.3494 38.8845 22.4093 38.9452 22.4093 39.1425V45.3653ZM27.7719 38.8086C28.5359 38.8086 28.9553 39.1425 28.9553 39.522C28.9553 39.8559 28.8205 40.1594 28.416 40.1594C27.712 40.1594 27.9667 39.3702 27.1428 39.3702C26.3039 39.3702 25.8096 40.554 25.6748 40.7817V45.7144C25.6748 46.0939 26.1092 46.2153 26.4987 46.276V46.5644C25.5849 46.4885 24.7011 46.4885 23.7724 46.5644V46.276C24.2518 46.2153 24.6562 46.0939 24.6562 45.7144V40.2201C24.6562 39.7496 24.3866 39.5979 23.7874 39.6586V39.3702C24.7611 39.2336 25.1655 38.8238 25.4201 38.8238C25.5699 38.8238 25.6898 38.9149 25.6748 39.0818L25.4501 40.5085C25.9594 39.5827 26.5885 38.8086 27.7719 38.8086ZM39.6806 45.7144C39.6806 46.0939 40.085 46.2153 40.5344 46.276V46.5644C39.6207 46.5188 38.7069 46.5188 37.7932 46.5644V46.276C38.2575 46.1849 38.632 46.0939 38.632 45.7144V41.0397C38.632 39.9621 38.3774 39.2791 37.5985 39.2791C36.5349 39.2791 35.6511 40.2353 35.4564 40.6755V45.7144C35.4564 46.0939 35.8608 46.1849 36.3252 46.276V46.5644C35.4115 46.5188 34.4827 46.5188 33.569 46.5644V46.276C34.0483 46.1849 34.4228 46.0939 34.4228 45.7144V41.0397C34.4228 39.9621 34.1532 39.2791 33.3593 39.2791C32.3107 39.2791 31.4419 40.2353 31.2472 40.6755V45.7144C31.2472 46.0939 31.6516 46.1849 32.101 46.276V46.5644C31.1872 46.5188 30.2735 46.5188 29.3597 46.5644V46.276C29.8241 46.2153 30.1986 46.0939 30.1986 45.7144V40.205C30.1986 39.7345 29.929 39.5827 29.3298 39.6434V39.355C30.3035 39.2184 30.7379 38.8238 31.0225 38.8238C31.1423 38.8238 31.2621 38.9149 31.2472 39.0818L31.1123 40.3871C31.4269 39.8711 32.2208 38.8238 33.6439 38.8238C34.5426 38.8238 35.2467 39.3398 35.3815 40.3871C35.6511 39.8559 36.46 38.8238 37.8831 38.8238C39.1413 38.8238 39.6806 39.4916 39.6806 40.9942V45.7144ZM46.7359 44.9859C46.7958 44.9859 46.8707 45.0466 46.8408 45.1529C46.5712 45.9573 45.7623 46.7161 44.4291 46.7161C42.5267 46.7161 41.0587 45.335 41.0587 42.8003C41.0587 40.3264 42.5417 38.839 44.2943 38.839C45.7173 38.839 47.1553 39.8255 47.1553 42.0414C47.1553 42.4664 47.0056 42.7244 46.5861 42.7244H42.317C42.317 45.1529 43.3356 46.3671 44.5639 46.3671C45.2829 46.3671 45.8671 46.0332 46.2566 45.2136C46.3165 45.0921 46.3614 44.9859 46.4963 44.9859H46.7359ZM46.0768 42.4209C46.0768 40.3871 45.5376 39.1577 44.3093 39.1577C43.0809 39.1577 42.332 40.4023 42.317 42.4209H46.0768ZM51.4694 46.0787C51.2747 46.3367 50.7654 46.6706 50.1962 46.6706C49.3424 46.6706 48.6533 46.276 48.6533 44.9404V39.3247H47.9343C47.8893 39.3247 47.8294 39.2791 47.8294 39.2336V39.0515C47.8294 39.0059 47.8893 38.9604 47.9343 38.9604C48.7731 38.9604 49.1326 38.3685 49.3424 36.8962H49.6869V38.9604H51.4095C51.4545 38.9604 51.5144 39.0059 51.5144 39.0515V39.2336C51.5144 39.2791 51.4545 39.3247 51.4095 39.3247H49.6869V45.2287C49.6869 45.7144 49.8816 46.2153 50.4958 46.2153C51.0201 46.2153 51.3346 45.851 51.4694 45.6234V46.0787ZM53.6714 45.5778C53.6714 46.0787 53.9411 46.2305 54.5252 46.1394V46.4126C53.4917 46.6554 53.237 46.7313 52.8625 46.7313C52.7127 46.7313 52.6229 46.6403 52.6229 46.4581V37.4578C52.6229 36.9873 52.3532 36.8355 51.7541 36.8962V36.6079C52.7277 36.4713 53.1621 36.0767 53.4318 36.0767C53.5666 36.0767 53.6714 36.1525 53.6714 36.365V45.5778ZM62 38.9604V39.2488L61.7004 39.2943C61.4907 39.3702 61.1162 39.2943 60.9814 39.6889L57.4612 49.6758C57.4163 49.782 57.4013 49.8883 57.1766 49.8883C56.9369 49.8883 56.862 49.782 56.907 49.6758C57.1766 49.0231 58.2701 46.2608 58.2701 46.2608C58.2701 46.0635 56.5325 41.8897 55.6787 39.6889C55.5139 39.2943 55.3641 39.2943 55.1843 39.2943L54.735 39.2488V38.9604C55.7536 39.0059 56.8471 39.0059 57.641 38.9604V39.2488L57.1317 39.2943C56.9669 39.2943 56.6374 39.3095 56.7722 39.6889L58.7495 44.9555L60.562 39.6889C60.6818 39.3095 60.2324 39.3247 60.1575 39.2943L59.798 39.2488V38.9604C60.532 39.0059 61.1761 39.0059 62 38.9604Z" fill="white"/>
<path d="M6.99192 51.7118C7.75592 51.7118 8.13373 52.2846 8.13373 52.8319C8.13373 53.4103 7.75313 53.9802 7.00033 53.9802H6.23633C6.21115 53.9802 6.19995 53.9661 6.19995 53.9434V51.7486C6.19995 51.7231 6.21115 51.7118 6.23633 51.7118L6.99192 51.7118ZM7.01151 53.7648C7.59637 53.7648 7.91263 53.2997 7.90984 52.8318C7.90984 52.3668 7.602 51.9273 7.01151 51.9273H6.41822L6.42102 53.7648H7.01151ZM11.7282 51.9273L10.5136 51.9274V52.7582H11.2637C11.2888 52.7582 11.3028 52.7695 11.3028 52.7979V52.9339C11.3028 52.9595 11.2888 52.9708 11.2637 52.9708H10.5136V53.7648H11.7282C11.7534 53.7648 11.7674 53.7789 11.7674 53.8044V53.9405C11.7674 53.9689 11.7562 53.9802 11.7282 53.9802H10.3289C10.3037 53.9802 10.2925 53.9661 10.2925 53.9434V51.7486C10.2925 51.7231 10.3065 51.7117 10.3289 51.7117H11.7282C11.7534 51.7117 11.7673 51.7259 11.7673 51.7486V51.8904C11.7673 51.9131 11.7561 51.9273 11.7282 51.9273ZM15.2554 53.7647C15.2778 53.7647 15.289 53.7789 15.289 53.8044V53.9434C15.289 53.9689 15.2778 53.9802 15.2554 53.9802H13.9429C13.9177 53.9802 13.9093 53.9632 13.9093 53.9434V51.7486C13.9093 51.7231 13.9205 51.7117 13.9457 51.7117H14.094C14.1164 51.7117 14.1304 51.7231 14.1304 51.7486V53.7647L15.2554 53.7647ZM17.6409 51.7118H17.4982C17.473 51.7118 17.4618 51.7232 17.4618 51.7487V53.9435C17.4618 53.9661 17.473 53.9803 17.4982 53.9803H17.6437C17.6633 53.9803 17.6773 53.9661 17.6773 53.9435V51.7487C17.6773 51.7232 17.6633 51.7118 17.6409 51.7118ZM21.7614 53.0672C21.7894 53.0672 21.8006 53.0785 21.8006 53.1068V53.6201H21.7978C21.7978 53.6314 21.7894 53.6484 21.7754 53.6626C21.5683 53.8724 21.2997 54 20.9666 54C20.337 54 19.822 53.4953 19.822 52.8488C19.822 52.2051 20.337 51.6919 20.9666 51.6919C21.2857 51.6919 21.5711 51.8167 21.781 52.0293C21.8062 52.0548 21.809 52.0747 21.7922 52.0889L21.6747 52.1881C21.6551 52.2051 21.6383 52.2051 21.6187 52.1853C21.5012 52.0605 21.2689 51.9074 20.9834 51.9074C20.3761 51.9074 20.0403 52.4065 20.0403 52.8488C20.0403 53.2968 20.3761 53.7845 20.9834 53.7845C21.2465 53.7845 21.4536 53.6598 21.5795 53.5435V53.2798H20.989C20.9638 53.2798 20.9526 53.2685 20.9526 53.2458V53.1068C20.9526 53.0785 20.9638 53.0671 20.989 53.0671L21.7614 53.0672ZM25.7477 51.7118C25.7728 51.7118 25.7868 51.7232 25.7868 51.7487V53.9435C25.7868 53.9662 25.7756 53.9803 25.7533 53.9803H25.6413C25.591 53.9803 25.5686 53.9491 25.5686 53.9038V52.9737H24.1553V53.9406C24.1553 53.9662 24.1441 53.9803 24.1189 53.9803H23.9762C23.9482 53.9803 23.937 53.9662 23.937 53.9406V51.7487C23.937 51.7232 23.9482 51.7118 23.9734 51.7118H24.1189C24.1413 51.7118 24.1553 51.7232 24.1553 51.7487V52.7525H25.5685V51.7487C25.5685 51.7232 25.5797 51.7118 25.6021 51.7118L25.7477 51.7118ZM29.622 51.7118C29.6472 51.7118 29.6584 51.7232 29.6584 51.7487V51.8905C29.6584 51.9131 29.6472 51.9273 29.6221 51.9273H28.9V53.9406C28.9 53.9661 28.8888 53.9803 28.8665 53.9803H28.7545C28.7041 53.9803 28.6789 53.9491 28.6789 53.9009V51.9273H27.9569C27.9317 51.9273 27.9177 51.9131 27.9177 51.8904V51.7515C27.9177 51.7231 27.9317 51.7118 27.9569 51.7118L29.622 51.7118ZM31.7192 53.6003L31.7975 53.5067C31.8227 53.4812 31.8479 53.484 31.8703 53.501C31.9234 53.5464 32.1417 53.7874 32.4524 53.7874C32.8218 53.7874 32.9841 53.5833 32.9841 53.382C32.9841 53.0927 32.6594 53.0162 32.3656 52.9084C32.0326 52.7808 31.7471 52.6277 31.7471 52.2874C31.7471 52.0039 31.9514 51.692 32.4523 51.692C32.7965 51.692 33.0456 51.9018 33.1128 51.9613C33.1352 51.9812 33.1436 52.0067 33.1268 52.0294L33.054 52.1258C33.0373 52.1485 33.0149 52.1542 32.9897 52.1372C32.9337 52.0946 32.7322 51.9046 32.4552 51.9046C32.1417 51.9046 31.9654 52.0719 31.9654 52.2874C31.9654 52.5369 32.2145 52.6248 32.5419 52.7439C32.8414 52.8574 33.2024 53.0105 33.2024 53.3848C33.2024 53.7137 32.9002 53.9972 32.4552 53.9972C32.0466 53.9972 31.7948 53.7279 31.7304 53.6626C31.7108 53.6428 31.694 53.6258 31.7192 53.6003ZM40.4081 51.7118C40.4277 51.7118 40.4417 51.7289 40.4417 51.7516V53.9406C40.4417 53.9662 40.4277 53.9803 40.4053 53.9803H40.2598C40.2318 53.9803 40.2206 53.9662 40.2206 53.9406V52.1656L39.2019 53.9067C39.1907 53.9265 39.1795 53.935 39.1599 53.935H39.1487C39.1319 53.935 39.1179 53.9265 39.1067 53.9067L38.0909 52.1656V53.9406C38.0909 53.9662 38.0769 53.9803 38.0545 53.9803H37.909C37.8838 53.9803 37.8698 53.9662 37.8698 53.9406V51.7487C37.8698 51.7288 37.881 51.7118 37.9034 51.7118H38.0377C38.0573 51.7118 38.0685 51.7203 38.0797 51.7374L39.1543 53.5748L40.2318 51.7374C40.2402 51.7203 40.2513 51.7118 40.2765 51.7118L40.4081 51.7118ZM44.7693 53.9434C44.7805 53.9661 44.775 53.9802 44.7498 53.9802H44.5791C44.5595 53.9802 44.5483 53.9717 44.5399 53.9547L44.344 53.5322H42.9924L42.7965 53.9547C42.7881 53.9717 42.7769 53.9802 42.7601 53.9802H42.5838C42.5642 53.9802 42.553 53.9661 42.5642 53.9434L43.6136 51.7232C43.6248 51.7033 43.6332 51.6977 43.6472 51.6977H43.6864C43.7004 51.6977 43.7116 51.7033 43.72 51.7232L44.7693 53.9434ZM43.0874 53.3281H44.2488L43.6667 52.0804L43.0874 53.3281ZM48.4309 53.9065C48.4617 53.9377 48.442 53.9802 48.4 53.9802H48.2405C48.2209 53.9802 48.2097 53.9746 48.1929 53.9576L47.0679 52.8347V53.9434C47.0679 53.9661 47.0567 53.9802 47.0343 53.9802H46.8832C46.8608 53.9802 46.8468 53.9661 46.8468 53.9434V51.8819C46.8468 51.8309 46.8413 51.794 46.8357 51.7543C46.8329 51.7288 46.8413 51.7118 46.8636 51.7118H46.9924C47.0399 51.7118 47.0679 51.7373 47.0679 51.7827V52.7865L48.0866 51.7345C48.1006 51.7203 48.1118 51.7118 48.1314 51.7118H48.3021C48.3441 51.7118 48.3553 51.7543 48.3301 51.7827L47.3283 52.812L48.4309 53.9065ZM51.9861 51.9273L50.7716 51.9274V52.7582H51.5216C51.5468 52.7582 51.5608 52.7695 51.5608 52.7979V52.9339C51.5608 52.9595 51.5468 52.9708 51.5216 52.9708H50.7716V53.7648H51.9862C52.0114 53.7648 52.0253 53.7789 52.0253 53.8044V53.9405C52.0253 53.9689 52.0141 53.9802 51.9862 53.9802H50.5869C50.5617 53.9802 50.5505 53.9661 50.5505 53.9434V51.7486C50.5505 51.7231 50.5645 51.7117 50.5869 51.7117H51.9862C52.0113 51.7117 52.0253 51.7259 52.0253 51.7486V51.8904C52.0253 51.9131 52.0141 51.9273 51.9861 51.9273ZM55.7932 53.9405C55.8072 53.9632 55.7988 53.9802 55.7736 53.9802H55.6281C55.5833 53.9802 55.5525 53.9434 55.5357 53.9179L55.0404 53.2061H55.032H54.3911V53.9405C54.3911 53.9661 54.3799 53.9802 54.3519 53.9802H54.2064C54.1812 53.9802 54.17 53.9661 54.17 53.9405V51.7486C54.17 51.7231 54.1812 51.7118 54.2064 51.7118H55.032C55.5553 51.7118 55.796 52.1229 55.796 52.4603C55.796 52.7496 55.6225 53.0842 55.2559 53.1806L55.7932 53.9405ZM54.3912 51.9273L54.3912 52.9934H55.0153C55.3959 52.9934 55.5778 52.7241 55.5778 52.4547C55.5778 52.1882 55.3931 51.9273 55.0153 51.9273H54.3912Z" fill="white"/>
</g>
<defs>
<clipPath id="clip0_52_2794">
<rect width="62" height="54" fill="white"/>
</clipPath>
</defs>
</svg>
